<svg id="Ebene_5" data-name="Ebene 5" xmlns="http://www.w3.org/2000/svg" viewBox="0 0 348.1 226.9">
  <title>Asam_f_simulation</title>
  <g>
    <path d="M11,172.2l-.6-.8Z" fill="none"/>
    <path d="M9,169l-.4-.9Z" fill="none"/>
    <path d="M177.1,155.8h0a5.9,5.9,0,0,0-.4-.8A5.9,5.9,0,0,1,177.1,155.8Z" fill="none"/>
    <path d="M13.5,175l-.7-.7Z" fill="none"/>
    <path d="M12.2,173.7l-.7-.8Z" fill="none"/>
    <path d="M8.3,167.3a4.2,4.2,0,0,1-.4-1A4.2,4.2,0,0,0,8.3,167.3Z" fill="none"/>
    <path d="M7,160.6c0,.3.1.6.1.9s-.1-.7-.1-1.1Z" fill="none"/>
    <path d="M7.3,163.5c-.1-.3-.1-.6-.2-1S7.2,163.2,7.3,163.5Z" fill="none"/>
    <path d="M7.7,165.4l-.3-.9Z" fill="none"/>
    <path d="M15,176.1l-.8-.5Z" fill="none"/>
    <path d="M294.6,32.9a12.7,12.7,0,0,0,3.1-9.1A25.9,25.9,0,0,0,273.7,7h-2A25.9,25.9,0,0,0,246,32.9v13h.5C277.5,45.9,289.8,38.9,294.6,32.9Z" fill="none"/>
    <path d="M25.7,179.9h0Z" fill="none"/>
    <path d="M16.5,177.2l-.8-.5Z" fill="none"/>
    <path d="M271.7,75.3h2a25.7,25.7,0,0,0,25.7-25.7V37.8c-8.6,10-26.2,14.9-52.9,14.9h-.2A25.7,25.7,0,0,0,271.7,75.3Z" fill="none"/>
    <path d="M23.8,179.7h0Z" fill="none"/>
    <path d="M20,178.8l-1-.3Z" fill="none"/>
    <path d="M18.2,178.1l-.9-.5Z" fill="none"/>
    <path d="M21.8,179.4l-1-.3Z" fill="none"/>
    <path d="M9.9,170.7a4.1,4.1,0,0,0-.5-.9A4.1,4.1,0,0,1,9.9,170.7Z" fill="none"/>
    <path d="M296.4,148.5h0Z" fill="none"/>
    <path d="M297.7,149.2l.3.3Z" fill="none"/>
    <path d="M297.1,148.8l.3.2Z" fill="none"/>
    <path d="M298.8,150.2l.3.3Z" fill="none"/>
    <path d="M298.3,149.7l.3.3Z" fill="none"/>
    <path d="M293.4,147.7h0Z" fill="none"/>
    <path d="M294.2,147.8h0Z" fill="none"/>
    <path d="M294.9,148h0Z" fill="none"/>
    <path d="M295.7,148.2h0Z" fill="none"/>
    <path d="M300.7,153.6v0Z" fill="none"/>
    <path d="M300.8,154.3c0,.2.1.3.1.4S300.8,154.5,300.8,154.3Z" fill="none"/>
    <path d="M299.7,151.4c.1.2.2.3.2.4S299.8,151.6,299.7,151.4Z" fill="none"/>
    <path d="M300.4,152.8a.6.6,0,0,1,.1.4A.6.6,0,0,0,300.4,152.8Z" fill="none"/>
    <path d="M299.3,150.8l.2.3Z" fill="none"/>
    <path d="M300.1,152.1l.2.4Z" fill="none"/>
    <path d="M300.9,155.1v0Z" fill="none"/>
    <path d="M177.2,156.3a4.3,4.3,0,0,0-.1-.5h0A4.3,4.3,0,0,1,177.2,156.3Z" fill="#fff"/>
    <path d="M7,27.3V153.4H173.7a3.9,3.9,0,0,1,3,1.6,5.9,5.9,0,0,1,.4.8c-.6-14.4.8-30.2,7.9-42.6C200.6,86.8,215.7,81,215.7,81a3.5,3.5,0,0,1-3.6-3.4V27.3c0-4.5-3.1-8.2-7-8.2H14C10.3,19.1,7,22.8,7,27.3ZM170.4,72.1H157.8l-4.6-.5h-.1a6.6,6.6,0,0,1-6.4-6.6V61.5l-17.8,9.8V64.4c-16.1,1.9-24.4,10-24.2,24A19,19,0,0,1,99,102.8c-8.1,7.9-22.6,9.1-29.2,9.3v.5a6.1,6.1,0,0,1-5.8,6l-7.4,1H43.9l-4.6-.5h0a6.6,6.6,0,0,1-6.4-6.6V105a6.7,6.7,0,0,1,6.8-6.6l3.9-.4H56.1l8.1,1.1a5.9,5.9,0,0,1,5.6,5.9h0c5.8-.2,18.1-1.3,24.4-7.4a12.1,12.1,0,0,0,3.7-9.2c-.3-18.1,10.9-29,31.3-31.1v-7l17.4,10.5V57.4a6.8,6.8,0,0,1,6.8-6.6l3.9-.4h12.5l8.2,1.1a5.9,5.9,0,0,1,5.5,5.9V65a6,6,0,0,1-5.8,6ZM135.2,98.4l3.9-.4h12.5l8.2,1.1a5.8,5.8,0,0,1,5.5,5.9v7.6a6,6,0,0,1-5.8,6l-7.4,1H139.5l-4.6-.5h-.1a6.6,6.6,0,0,1-6.4-6.6V105A6.8,6.8,0,0,1,135.2,98.4Zm-6.1-13.3a3.5,3.5,0,0,1,3.5-3.5h13a3.4,3.4,0,0,1,3.5,3.5,3.5,3.5,0,0,1-3.5,3.5h-13A3.5,3.5,0,0,1,129.1,85.1Zm-97,3.5a3.5,3.5,0,0,1-3.5-3.5,3.5,3.5,0,0,1,3.5-3.5h7a3.5,3.5,0,0,1,3.5,3.5,3.5,3.5,0,0,1-3.5,3.5Zm34.5-3.5a3.5,3.5,0,0,1,3.5-3.5h13a3.4,3.4,0,0,1,3.5,3.5,3.5,3.5,0,0,1-3.5,3.5h-13A3.5,3.5,0,0,1,66.6,85.1Zm118.2,3.5h-6.9a3.5,3.5,0,0,1-3.5-3.5,3.4,3.4,0,0,1,3.5-3.5h6.9a3.4,3.4,0,0,1,3.5,3.5A3.5,3.5,0,0,1,184.8,88.6ZM28.5,34.1h160a3.5,3.5,0,0,1,3.5,3.5,3.5,3.5,0,0,1-3.5,3.5H28.5A3.5,3.5,0,0,1,25,37.6,3.5,3.5,0,0,1,28.5,34.1Zm0,94.9H166.9a3.5,3.5,0,0,1,0,7H28.5a3.5,3.5,0,0,1,0-7Z" fill="#fff"/>
    <path d="M177.3,157a1.7,1.7,0,0,0-.1-.7,1.7,1.7,0,0,1,.1.7Z" fill="#fff"/>
    <polygon points="169.9 65.1 176.6 64.1 176.6 58.3 169.5 57.3 157.8 57.3 153.7 57.8 153.7 64.7 158.1 65.1 169.9 65.1" fill="#94c4eb"/>
    <polygon points="151.6 112.7 158.3 111.7 158.3 105.9 151.1 104.9 139.5 105 135.4 105.4 135.4 112.3 139.8 112.7 151.6 112.7" fill="#94c4eb"/>
    <polygon points="43.9 105 39.9 105.4 39.9 112.3 44.3 112.7 56.1 112.7 62.8 111.7 62.8 105.9 55.6 104.9 43.9 105" fill="#94c4eb"/>
    <path d="M271.7,82.3h2a32.8,32.8,0,0,0,32.7-32.7V32.9a28.1,28.1,0,0,0-1.9-10.3v-.7l-.3-.5A32.6,32.6,0,0,0,273.7,0h-2A32.9,32.9,0,0,0,239,32.9V49.6A32.8,32.8,0,0,0,271.7,82.3ZM246,32.9A25.9,25.9,0,0,1,271.7,7h2a25.9,25.9,0,0,1,24,16.8,12.7,12.7,0,0,1-3.1,9.1c-4.8,6-17.1,13-48.1,13H246Zm.5,19.8c26.7,0,44.3-4.9,52.9-14.9V49.6a25.7,25.7,0,0,1-25.7,25.7h-2a25.7,25.7,0,0,1-25.4-22.6Z" fill="#0070a7"/>
    <path d="M173.7,160.4H7c0,.4.1.8.1,1.1v1c.1.4.1.7.2,1s.1.6.1,1l.3.9c.1.3.1.6.2.9a4.2,4.2,0,0,0,.4,1l.3.8.4.9.4.8a4.1,4.1,0,0,1,.5.9l.5.7.6.8.5.7.7.8.6.6.7.7.7.6.8.5.7.6.8.5.8.4.9.5.8.4,1,.3.8.3,1,.3.9.2h1.1l.8.2H183.8c-3.5-6-6.7-18.1-6.7-22.5A3.3,3.3,0,0,1,173.7,160.4Z" fill="#94c4eb"/>
    <path d="M183.5,180H24.6l-.8-.2H22.7l-.9-.2-1-.3-.8-.3-1-.3-.8-.4-.9-.5-.8-.4-.8-.5-.7-.6-.8-.5-.7-.6-.7-.7-.6-.6-.7-.8-.5-.7-.6-.8-.5-.7a4.1,4.1,0,0,0-.5-.9L9,169l-.4-.9-.3-.8a4.2,4.2,0,0,1-.4-1c-.1-.3-.1-.6-.2-.9l-.3-.9c0-.4-.1-.7-.1-1s-.1-.6-.2-1v-1c0-.3-.1-.6-.1-.9v-.2H173.7a3.3,3.3,0,0,0,3.4-2.9.8.8,0,0,0,.2-.5h0a1.7,1.7,0,0,0-.1-.7,4.3,4.3,0,0,0-.1-.5,5.9,5.9,0,0,0-.4-.8,3.9,3.9,0,0,0-3-1.6H7V27.3c0-4.5,3.3-8.2,7-8.2H205.2c4,0,7.1,3.7,7.1,8.2V77.6a3.5,3.5,0,0,0,3.6,3.4,3.4,3.4,0,0,0,3.5-3.4V27.3c-.1-8.4-6.5-15.3-14.2-15.3H14C6.3,12,.2,18.9.2,27.3V153.4H0v6.9A26.7,26.7,0,0,0,26.5,187H78.4v36.4a3.4,3.4,0,1,0,6.8,0V187h48.7v36.4a3.5,3.5,0,0,0,3.4,3.5h.2a3.5,3.5,0,0,0,3.4-3.5V187h42.4a3.6,3.6,0,0,0,3.6-3.6A3.4,3.4,0,0,0,183.5,180Zm-15.3-22.8Z" fill="#0070a7"/>
    <path d="M300.9,154.7c0-.1-.1-.2-.1-.4a.8.8,0,0,0-.1-.4v-.3c-.1-.2-.1-.3-.2-.4a.6.6,0,0,0-.1-.4c0-.1-.1-.2-.1-.3l-.2-.4-.2-.3c0-.1-.1-.2-.2-.4l-.2-.3-.2-.3-.2-.3-.3-.3a.2.2,0,0,1-.2-.2l-.3-.3-.3-.2-.3-.3-.3-.2-.3-.2-.4-.2h-.3l-.4-.2H243.4a8,8,0,0,0-7.9,7.9v30.8c0,.3.1.5.1.8a7,7,0,0,0,.9,2.9l.9,1.3a8.7,8.7,0,0,0,2.3,1.9,7.9,7.9,0,0,0,3.7,1h49.5a8,8,0,0,0,8-7.9V154.7Z" fill="#fff"/>
    <polygon points="213.5 184.7 228.5 179.6 228.5 164.3 213.5 157.8 213.5 184.7" fill="#94c4eb"/>
    <path d="M293.1,140.7H243.4a14.9,14.9,0,0,0-14.9,14.9v1.2l-17.1-7.5a3.2,3.2,0,0,0-4.4,1.3,3.1,3.1,0,0,0-.4,1.9v37a3.7,3.7,0,0,0,1.4,2.9,4.8,4.8,0,0,0,2,.7h1.2l17.3-6a15,15,0,0,0,14.9,14.4h49.5a14.9,14.9,0,0,0,14.9-14.9V155.8A14.9,14.9,0,0,0,293.1,140.7Zm-64.6,38.9-15,5.1V157.8l15,6.5Zm72.4,6.8a8,8,0,0,1-8,7.9H243.4a7.9,7.9,0,0,1-3.7-1,8.7,8.7,0,0,1-2.3-1.9l-.9-1.3a7,7,0,0,1-.9-2.9c0-.3-.1-.5-.1-.8V155.6a8,8,0,0,1,7.9-7.9H296l.4.2h.3l.4.2.3.2.3.2.3.3.3.2.3.3a.2.2,0,0,0,.2.2l.3.3.2.3.2.3.2.3c.1.2.2.3.2.4l.2.3.2.4c0,.1.1.2.1.3a.6.6,0,0,1,.1.4c.1.1.1.2.2.4v.3a.8.8,0,0,1,.1.4c0,.2.1.3.1.4v31.7Z" fill="#0070a7"/>
    <path d="M239.1,88a3.5,3.5,0,1,0-.7-6.9c-16.2,1.6-31.4,13.6-38.6,30.8l-.2.4a3.2,3.2,0,0,0,2,4.1,1.7,1.7,0,0,0,1.4.3,3.5,3.5,0,0,0,3.1-2C213.8,96.5,228.7,89,239.1,88Z" fill="#0070a7"/>
    <path d="M338.2,103.4C330,90.7,317.4,82.5,304,81.3a3.5,3.5,0,0,0-3.8,3.1,3.5,3.5,0,0,0,3.1,3.8c11.3,1.2,21.4,7.3,29,19s14,32.3,2.5,66.2a3.8,3.8,0,0,0,2.2,4.5h1.2a3.5,3.5,0,0,0,3.3-2.3C353.8,139.2,346.5,116.1,338.2,103.4Z" fill="#0070a7"/>
    <path d="M168.2,157.2h0Z" fill="#0070a7"/>
    <path d="M128.4,112.6a6.6,6.6,0,0,0,6.4,6.6h.1l4.6.5h12.6l7.4-1a6,6,0,0,0,5.8-6V105a5.8,5.8,0,0,0-5.5-5.9L151.6,98H139.1l-3.9.4a6.8,6.8,0,0,0-6.8,6.6Zm7-7.2,4.1-.4h11.6l7.2,1v5.8l-6.7,1H139.8l-4.4-.4Z" fill="#0070a7"/>
    <path d="M183.6,65V57.4a5.9,5.9,0,0,0-5.5-5.9l-8.2-1.1H157.4l-3.9.4a6.8,6.8,0,0,0-6.8,6.6v3.5l.5.3-.5.3V65a6.6,6.6,0,0,0,6.4,6.6h.1l4.6.5h12.6l7.4-1.1A6,6,0,0,0,183.6,65Zm-29.9-7.2,4.1-.5h11.7l7.1,1v5.8l-6.7,1H158.1l-4.4-.4Z" fill="#0070a7"/>
    <path d="M28.5,41.1h160a3.5,3.5,0,0,0,3.5-3.5,3.5,3.5,0,0,0-3.5-3.5H28.5A3.5,3.5,0,0,0,25,37.6,3.5,3.5,0,0,0,28.5,41.1Z" fill="#0070a7"/>
    <path d="M28.5,136H166.9a3.5,3.5,0,0,0,0-7H28.5a3.5,3.5,0,0,0,0,7Z" fill="#0070a7"/>
    <path d="M42.6,85.1a3.5,3.5,0,0,0-3.5-3.5h-7a3.5,3.5,0,0,0-3.5,3.5,3.5,3.5,0,0,0,3.5,3.5h7A3.5,3.5,0,0,0,42.6,85.1Z" fill="#0070a7"/>
    <path d="M83.1,88.6a3.5,3.5,0,0,0,3.5-3.5,3.4,3.4,0,0,0-3.5-3.5h-13a3.5,3.5,0,0,0-3.5,3.5,3.5,3.5,0,0,0,3.5,3.5Z" fill="#0070a7"/>
    <path d="M145.6,88.6a3.5,3.5,0,0,0,3.5-3.5,3.4,3.4,0,0,0-3.5-3.5h-13a3.5,3.5,0,0,0-3.5,3.5,3.5,3.5,0,0,0,3.5,3.5Z" fill="#0070a7"/>
    <path d="M184.8,81.6h-6.9a3.4,3.4,0,0,0-3.5,3.5,3.5,3.5,0,0,0,3.5,3.5h6.9a3.5,3.5,0,0,0,3.5-3.5A3.4,3.4,0,0,0,184.8,81.6Z" fill="#0070a7"/>
    <path d="M146.7,60.9,129.3,50.4v7c-20.4,2.1-31.6,13-31.3,31.1a12.1,12.1,0,0,1-3.7,9.2c-6.3,6.1-18.6,7.2-24.4,7.4h0a5.9,5.9,0,0,0-5.6-5.9L56.1,98H43.6l-3.9.4a6.7,6.7,0,0,0-6.8,6.6v7.6a6.6,6.6,0,0,0,6.4,6.6h0l4.6.5H56.6l7.4-1a6.1,6.1,0,0,0,5.8-6v-.5c6.6-.2,21.1-1.4,29.2-9.3a19,19,0,0,0,5.8-14.4c-.2-14,8.1-22.1,24.2-24v6.9l17.8-9.8.5-.3ZM62.8,111.7l-6.7,1H44.3l-4.4-.4v-6.9l4-.4H55.6l7.2,1Z" fill="#0070a7"/>
  </g>
</svg>
